<svg height="512" viewBox="0 0 44 60" width="512" xmlns="http://www.w3.org/2000/svg"><g id="Page-1" fill="none" fill-rule="evenodd"><g id="022---SSD" fill="rgb(0,0,0)" fill-rule="nonzero"><path id="Shape" d="m40 60h-36c-2.20811096-.0024799-3.99752006-1.791889-4-4v-52c.00247994-2.20811096 1.79188904-3.99752006 4-4h36c2.208111.00247994 3.9975201 1.79188904 4 4v52c-.0024799 2.208111-1.791889 3.9975201-4 4zm-36-58c-1.10411252.00110246-1.99889754.89588748-2 2v52c.00110246 1.1041125.89588748 1.9988975 2 2h36c1.1041125-.0011025 1.9988975-.8958875 2-2v-52c-.0011025-1.10411252-.8958875-1.99889754-2-2z"/><path id="Shape" d="m29 8h-18c-1.10411252-.00110246-1.99889754-.89588748-2-2v-5c0-.55228475.44771525-1 1-1h20c.5522847 0 1 .44771525 1 1v5c-.0011025 1.10411252-.8958875 1.99889754-2 2zm-18-6v4h18v-4z"/><circle id="Oval" cx="5" cy="5" r="1"/><circle id="Oval" cx="39" cy="5" r="1"/><circle id="Oval" cx="5" cy="55" r="1"/><circle id="Oval" cx="39" cy="55" r="1"/><path id="Shape" d="m23 8c-.5522847 0-1-.44771525-1-1v-6c0-.55228475.4477153-1 1-1s1 .44771525 1 1v6c0 .55228475-.4477153 1-1 1z"/><path id="Shape" d="m35 53h-26c-2.76007596-.0032511-4.99674886-2.239924-5-5v-28c.00325114-2.760076 2.23992404-4.9967489 5-5h26c2.760076.0032511 4.9967489 2.239924 5 5v28c-.0032511 2.760076-2.239924 4.9967489-5 5zm-26-36c-1.65610033.0018187-2.99818129 1.3438997-3 3v28c.00181871 1.6561003 1.34389967 2.9981813 3 3h26c1.6561003-.0018187 2.9981813-1.3438997 3-3v-28c-.0018187-1.6561003-1.3438997-2.9981813-3-3z"/><path id="Shape" d="m12 35c-1.617926.0007829-3.07683773-.9736229-3.69584598-2.4684519-.61900825-1.4948291-.27607629-3.2153778.86874598-4.3586481 1.5812774-1.5125256 4.0729226-1.5125256 5.6542 0 .752904.7478632 1.175262 1.765894 1.1729 2.8271 0 .5522847-.4477153 1-1 1s-1-.4477153-1-1c.0009138-.5305066-.2104175-1.0393366-.5869-1.4131-.7900684-.7568157-2.0361316-.7568157-2.8262 0-.5726992.571388-.74440978 1.431692-.4349437 2.179154.309466.747462 1.0390516 1.2346092 1.8480437 1.233946.5522847 0 1 .4477153 1 1s-.4477153 1-1 1z"/><path id="Shape" d="m12 41c-2.20811096-.0024799-3.99752006-1.791889-4-4 0-.5522847.44771525-1 1-1s1 .4477153 1 1c.0008837 1.1032688.8956638 1.9970938 1.9989329 1.9967993 1.1032691-.0002946 1.9975718-.8945973 1.9978664-1.9978664.0002945-1.1032691-.8935305-1.9980492-1.9967993-1.9989329-.5522847 0-1-.4477153-1-1s.4477153-1 1-1c2.209139 0 4 1.790861 4 4s-1.790861 4-4 4z"/><path id="Shape" d="m22 35c-1.617926.0007829-3.0768377-.9736229-3.695846-2.4684519-.6190082-1.4948291-.2760763-3.2153778.868746-4.3586481 1.5812774-1.5125256 4.0729226-1.5125256 5.6542 0 .752904.7478632 1.175262 1.765894 1.1729 2.8271 0 .5522847-.4477153 1-1 1s-1-.4477153-1-1c.0009138-.5305066-.2104175-1.0393366-.5869-1.4131-.7900684-.7568157-2.0361316-.7568157-2.8262 0-.5726992.571388-.7444098 1.431692-.4349437 2.179154.309466.747462 1.0390516 1.2346092 1.8480437 1.233946.5522847 0 1 .4477153 1 1s-.4477153 1-1 1z"/><path id="Shape" d="m22 41c-2.208111-.0024799-3.9975201-1.791889-4-4 0-.5522847.4477153-1 1-1s1 .4477153 1 1c.0008837 1.1032688.8956638 1.9970938 1.9989329 1.9967993 1.1032691-.0002946 1.9975718-.8945973 1.9978664-1.9978664.0002945-1.1032691-.8935305-1.9980492-1.9967993-1.9989329-.5522847 0-1-.4477153-1-1s.4477153-1 1-1c2.209139 0 4 1.790861 4 4s-1.790861 4-4 4z"/><path id="Shape" d="m32 41h-3c-.5522847 0-1-.4477153-1-1v-12c0-.5522847.4477153-1 1-1h3c2.208111.0024799 3.9975201 1.791889 4 4v6c-.0024799 2.208111-1.791889 3.9975201-4 4zm-2-2h2c1.1041125-.0011025 1.9988975-.8958875 2-2v-6c-.0011025-1.1041125-.8958875-1.9988975-2-2h-2z"/></g></g></svg>